<svg version="1.1" id="Layer_1" xmlns="http://www.w3.org/2000/svg" xmlns:xlink="http://www.w3.org/1999/xlink" x="0px" y="0px"
	 width="100%" viewBox="0 0 1024 1024" enable-background="new 0 0 1024 1024" xml:space="preserve">
<path fill="#000000" opacity="1.000000" stroke="none" 
	d="
M258.000000,644.782349 
	C481.644501,644.771301 704.789001,644.760315 927.933533,644.749268 
	C928.766785,644.749268 929.600220,644.760010 930.433228,644.746826 
	C933.538147,644.697693 936.450012,644.456909 936.382812,649.170410 
	C936.318787,653.653259 933.513367,653.245422 930.640076,653.244568 
	C912.641846,653.239136 894.643677,653.240234 876.645447,653.238281 
	C868.241455,653.237366 868.070190,653.205994 866.608704,661.431885 
	C856.600464,717.763000 832.742493,767.842712 797.103943,812.196899 
	C743.715759,878.641235 674.556885,920.126709 591.784546,939.374573 
	C565.915283,945.390198 539.615723,948.116577 513.134338,947.783569 
	C422.459747,946.643494 341.652435,918.125549 272.603882,858.736023 
	C213.566437,807.957336 176.030670,744.192139 160.040375,667.877930 
	C159.394272,664.794373 158.872635,661.676025 158.479919,658.550415 
	C157.988693,654.640442 156.330521,653.062561 151.993271,653.106384 
	C128.998093,653.338440 105.999077,653.190796 83.001389,653.171021 
	C81.668526,653.169861 80.335732,653.132202 79.002838,653.118835 
	C75.970222,653.088318 75.654579,651.100220 75.651131,648.695740 
	C75.647736,646.327881 76.350914,644.822937 79.017914,644.856873 
	C81.350166,644.886658 83.683540,644.811279 86.016418,644.810791 
	C143.177612,644.799011 200.338806,644.791016 258.000000,644.782349 
M260.893921,711.796082 
	C278.533508,774.708496 311.954742,827.241333 364.422974,866.706665 
	C415.667542,905.251526 473.305878,922.710083 537.599426,916.797180 
	C566.256592,914.161743 593.429138,906.370667 619.149414,893.637939 
	C674.308960,866.331482 715.139343,824.346863 743.965820,770.395935 
	C761.948792,736.739380 772.942383,700.846619 776.775208,662.818726 
	C777.738770,653.258545 777.775024,653.255615 768.449463,653.254639 
	C598.513245,653.237000 428.577057,653.220703 258.640869,653.205688 
	C251.174500,653.205017 250.585342,653.758179 251.440735,660.633789 
	C253.551804,677.602478 255.996246,694.514282 260.893921,711.796082 
z"/>
<path fill="#000000" opacity="1.000000" stroke="none" 
	d="
M827.005249,266.083588 
	C841.444153,293.873291 851.939453,322.713074 858.240906,353.007355 
	C859.326721,358.227386 861.241028,359.964233 866.705322,359.873718 
	C888.030518,359.520508 909.365173,359.705475 930.696045,359.763336 
	C932.845459,359.769165 935.552917,358.973877 936.175903,362.491089 
	C936.912415,366.648956 935.718445,368.225647 931.226562,368.234283 
	C912.395325,368.270447 893.563965,368.247009 874.732666,368.246613 
	C610.927673,368.240936 347.122742,368.241638 83.317795,368.148956 
	C80.488892,368.147980 76.156898,370.089569 75.697105,364.477325 
	C75.415573,361.040894 76.793228,359.698029 80.266953,359.731476 
	C91.931213,359.843750 103.597328,359.761902 115.262733,359.757660 
	C127.261436,359.753326 139.266953,359.517426 151.255539,359.864594 
	C156.170471,360.006927 157.779449,358.053680 158.766541,353.568573 
	C169.719208,303.802643 189.918808,258.120453 220.352844,217.188568 
	C257.331604,167.454483 304.292236,130.074661 361.212982,105.472168 
	C391.423340,92.414551 422.887543,83.675781 455.604462,79.504250 
	C475.929169,76.912773 496.325195,75.019753 516.781128,75.856903 
	C626.146667,80.332664 717.542419,122.397911 788.158752,207.006973 
	C803.228455,225.062759 816.083496,244.763962 827.005249,266.083588 
M788.367004,284.995911 
	C770.721252,235.809372 742.281921,193.948715 702.753906,159.777252 
	C659.366333,122.269295 608.847717,101.078003 551.879150,95.482643 
	C529.123596,93.247612 506.413574,94.546539 483.782715,98.224777 
	C449.491455,103.798225 417.557922,115.559883 388.016846,133.715195 
	C345.039490,160.128204 311.926910,196.000275 287.459351,239.947556 
	C267.875000,275.123932 256.489746,312.972107 251.420898,352.801941 
	C250.646057,358.890533 251.425659,359.715057 257.180725,359.715332 
	C436.491943,359.723785 615.803162,359.717621 795.114380,359.751526 
	C798.515930,359.752197 801.573853,359.025726 804.486755,357.232910 
	C801.657227,332.709259 796.742188,308.868683 788.367004,284.995911 
z"/>
<path fill="#000000" opacity="1.000000" stroke="none" 
	d="
M215.193390,568.043762 
	C211.524460,577.920654 207.884872,587.396851 204.511353,596.966858 
	C203.492813,599.856201 202.127045,601.339783 198.887375,601.484924 
	C195.440643,601.639160 195.341812,599.140076 194.545349,597.071960 
	C175.588669,547.847961 156.644608,498.619171 137.677170,449.399384 
	C136.933624,447.469879 135.982376,445.620422 134.605072,442.579163 
	C133.432739,463.158142 132.688080,482.403412 131.151901,501.585297 
	C129.354507,524.028992 129.307587,546.484802 129.309021,568.960999 
	C129.309250,572.512695 129.931793,575.930847 130.813049,579.288818 
	C132.808792,586.893433 138.497650,591.181274 147.585678,591.573730 
	C151.308029,591.734497 152.410736,593.039856 152.410828,596.646240 
	C152.410919,600.483704 150.802612,601.440186 147.285248,601.414978 
	C130.788452,601.296814 114.290268,601.386169 97.792770,601.337891 
	C95.605858,601.331482 92.846031,602.011169 92.723030,598.283875 
	C92.626137,595.347900 92.402092,592.815796 96.517273,592.172424 
	C111.375862,589.849487 114.212471,581.911926 115.559105,569.276001 
	C117.849319,547.786255 118.579010,526.172729 119.803329,504.598694 
	C120.999092,483.528015 123.506714,462.532135 123.627724,441.399292 
	C123.732635,423.078064 121.686737,420.590302 104.273186,416.832245 
	C102.949631,409.959961 103.173492,409.646088 109.953171,409.638000 
	C124.451080,409.620758 138.952957,409.828827 153.444702,409.530792 
	C158.132339,409.434357 160.044617,411.226501 161.664230,415.430969 
	C177.155365,455.645691 192.877121,495.771576 208.552109,535.915405 
	C209.258530,537.724548 210.150848,539.461060 210.956009,541.230164 
	C214.056763,540.322998 214.079071,537.886353 214.777069,535.972961 
	C229.488220,495.646240 244.223328,455.328064 258.782867,414.946625 
	C260.178711,411.075226 261.965942,409.461060 266.251740,409.533630 
	C281.389099,409.790009 296.533417,409.633453 311.702759,409.633453 
	C312.996246,412.211792 312.239807,414.457275 312.444489,416.300568 
	C311.885803,416.782959 311.767578,416.976044 311.636688,416.985107 
	C298.330017,417.903687 294.356812,424.285400 295.783508,439.647980 
	C296.996368,452.707825 298.185638,465.769958 299.339203,478.835175 
	C300.580627,492.895416 301.889069,506.951355 302.943787,521.026001 
	C303.900238,533.789673 304.575836,546.574585 305.333038,559.352722 
	C305.697174,565.497375 306.353027,571.614441 307.752258,577.599670 
	C309.714752,585.994019 314.497559,591.774170 323.612030,592.439209 
	C328.010742,592.760254 328.222534,595.597229 328.138123,598.649231 
	C328.033569,602.428101 324.904388,601.311707 322.851166,601.319031 
	C301.021240,601.396790 279.190857,601.345032 257.360779,601.391785 
	C254.249374,601.398438 251.786438,601.264160 251.809891,597.040100 
	C251.829941,593.430359 252.620987,591.811707 256.761414,591.499023 
	C268.902008,590.582275 273.489532,584.082581 272.139099,572.019531 
	C270.919250,561.122864 270.472321,550.140320 269.650177,539.198303 
	C268.442169,523.120178 266.986389,507.056915 266.054047,490.963165 
	C265.428802,480.170746 264.721741,469.394501 263.675842,458.636810 
	C263.230072,454.051727 262.885864,449.456757 261.387543,444.555847 
	C246.033310,485.596893 230.679062,526.637939 215.193390,568.043762 
z"/>
<path fill="#000000" opacity="1.000000" stroke="none" 
	d="
M399.897766,602.335083 
	C364.309296,590.384094 341.295380,566.876587 332.370819,530.622070 
	C318.980804,476.227386 352.766266,421.168854 406.937378,408.372406 
	C462.322479,395.289246 517.891541,432.272949 527.396423,488.673828 
	C533.349548,523.999512 523.930969,554.796570 498.145782,579.657043 
	C478.468536,598.628540 454.260254,607.266418 426.778198,606.563354 
	C417.730377,606.331848 408.915405,605.114136 399.897766,602.335083 
M454.657104,422.864349 
	C447.083160,418.353546 438.880157,415.663635 430.091400,415.428741 
	C408.858917,414.861206 388.068176,428.937073 379.224823,449.554138 
	C372.241211,465.835510 369.488312,482.930695 369.182800,500.546844 
	C368.840759,520.268494 369.847351,539.733887 377.233887,558.405579 
	C387.937134,585.461304 411.979065,599.690735 440.399994,594.461304 
	C462.347992,590.422913 475.505554,575.444153 482.957886,555.532410 
	C493.164154,528.262268 492.833099,500.135742 486.913361,472.011383 
	C482.662354,451.815430 473.773041,434.339020 454.657104,422.864349 
z"/>
<path fill="#000000" opacity="1.000000" stroke="none" 
	d="
M913.495850,552.354431 
	C897.398926,583.146790 871.920288,600.357727 838.351624,605.356934 
	C783.491943,613.526733 735.329102,578.930054 725.878357,524.744019 
	C715.823181,467.092468 753.370178,415.973877 807.111206,407.000397 
	C858.780579,398.372864 909.266235,430.194794 921.183655,484.378387 
	C926.285583,507.574677 923.861511,530.325256 913.495850,552.354431 
M775.959717,445.439575 
	C767.018372,461.576660 764.428528,479.313324 763.447876,497.311951 
	C762.733215,510.428131 763.405579,523.560547 765.345154,536.603760 
	C767.850342,553.449890 773.373169,568.738464 786.145569,580.829224 
	C802.845398,596.637817 828.399048,601.515503 847.582642,591.585876 
	C863.714722,583.235779 873.339844,569.249878 878.653015,552.286621 
	C884.724670,532.901794 886.747437,513.052917 884.870178,492.731476 
	C883.292725,475.655548 879.993835,459.138184 871.218201,444.210907 
	C861.695251,428.012482 847.811096,417.888550 828.717529,416.429993 
	C805.317078,414.642517 787.729980,424.162903 775.959717,445.439575 
z"/>
<path fill="#000000" opacity="1.000000" stroke="none" 
	d="
M566.275635,543.999512 
	C566.532471,555.455383 565.536987,566.478088 568.290649,577.292969 
	C570.598633,586.357422 576.887085,591.958862 586.243591,592.575500 
	C589.561218,592.794128 591.484192,593.331360 591.431335,597.329041 
	C591.377991,601.366028 589.098694,601.396179 586.217651,601.389893 
	C569.218811,601.353027 552.219727,601.387878 535.220764,601.360535 
	C532.792664,601.356628 530.077393,601.878235 529.828186,597.978821 
	C529.614746,594.640198 530.545166,593.036072 534.108154,592.152222 
	C549.183228,588.412598 552.950134,582.957825 553.734985,567.214294 
	C555.702881,527.744324 554.186462,488.259460 554.579163,448.784424 
	C554.665161,440.129700 554.059753,431.522980 546.967834,424.875031 
	C543.391113,421.522247 540.088257,418.059814 534.988831,417.289337 
	C532.218262,416.870667 531.627747,415.134918 531.690002,412.643433 
	C531.764404,409.661316 533.752808,409.658936 535.821106,409.657410 
	C550.820190,409.646210 565.819580,409.699615 580.817993,409.596252 
	C583.544678,409.577484 584.984436,410.936859 586.482300,412.907928 
	C617.622681,453.884979 648.811279,494.825378 679.999207,535.766235 
	C681.273132,537.438599 682.633667,539.045105 684.212402,541.002930 
	C686.372437,535.836853 685.014160,531.192261 685.000610,526.626038 
	C684.925110,501.294861 684.793579,475.963776 684.650085,450.632843 
	C684.617981,444.966034 683.903503,439.358337 682.685242,433.830688 
	C680.688599,424.770386 674.998840,419.348022 666.037781,417.237457 
	C664.904297,416.970490 663.794373,416.521881 662.648438,416.406464 
	C660.136230,416.153473 659.868408,414.483124 659.892395,412.492584 
	C659.919128,410.269562 661.294128,409.684357 663.178162,409.684357 
	C680.843262,409.684387 698.508362,409.690765 716.173462,409.688995 
	C718.216980,409.688812 719.215271,410.644135 719.231384,412.725952 
	C719.245178,414.499634 719.165222,416.105927 716.903687,416.433258 
	C716.248718,416.528046 715.623779,416.871307 714.970154,416.927429 
	C704.646118,417.814087 698.270691,425.653717 697.323914,438.291992 
	C695.167358,467.079712 696.662476,495.904663 696.436096,524.710144 
	C696.239685,549.697571 696.701355,574.690308 696.876892,599.680664 
	C696.885071,600.842834 696.971558,602.012207 696.045471,603.191101 
	C691.020081,603.809021 687.082153,602.660889 683.632996,598.170654 
	C646.900330,550.350830 609.985046,502.671265 573.102295,454.966827 
	C570.979980,452.221771 568.704712,449.595001 565.678772,445.913269 
	C564.602356,479.205566 565.943787,511.352814 566.275635,543.999512 
z"/>
</svg>