<?xml version="1.0" encoding="UTF-8" standalone="no" ?>
<!DOCTYPE svg PUBLIC "-//W3C//DTD SVG 1.1//EN" "http://www.w3.org/Graphics/SVG/1.1/DTD/svg11.dtd">
<svg xmlns="http://www.w3.org/2000/svg" xmlns:xlink="http://www.w3.org/1999/xlink" version="1.1" width="1080" height="1080" viewBox="0 0 1080 1080" xml:space="preserve">
<desc>Created with Fabric.js 5.2.4</desc>
<defs>
</defs>
<g transform="matrix(1 0 0 1 540 540)" id="e60c1e99-4d64-4767-9446-bd9a740e5f23"  >
<rect style="stroke: none; stroke-width: 1; stroke-dasharray: none; stroke-linecap: butt; stroke-dashoffset: 0; stroke-linejoin: miter; stroke-miterlimit: 4; fill: rgb(255,255,255); fill-rule: nonzero; opacity: 1; visibility: hidden;" vector-effect="non-scaling-stroke"  x="-540" y="-540" rx="0" ry="0" width="1080" height="1080" />
</g>
<g transform="matrix(1 0 0 1 540 540)" id="f8f886cf-7a06-4188-8af5-54982c76fcc5"  >
</g>
<g transform="matrix(1 0 0 1 540 540)" id="5a23c294-057d-464a-a07a-8c8e9fed4e9a"  >
<path style="stroke: rgb(255,255,255); stroke-width: 0; stroke-dasharray: none; stroke-linecap: butt; stroke-dashoffset: 0; stroke-linejoin: miter; stroke-miterlimit: 4; fill: rgb(255,255,255); fill-rule: nonzero; opacity: 1;" vector-effect="non-scaling-stroke"  transform=" translate(-526.25, -501.45)" d="M 706.847961 715.78064 C 690.273987 738.139038 671.188599 757.304016 646.543091 770.009521 C 614.507507 786.524841 582.842834 777.620422 563.455444 747.138184 C 554.351196 732.823792 550.009949 716.904297 547.567688 700.278076 C 545.57428 686.707397 545.052734 673.077515 545.838013 659.459351 C 547.528625 630.141174 553.671326 601.620056 562.037476 573.515991 C 568.06781 553.258911 574.952332 533.302307 582.132507 513.43573 C 582.766541 511.681427 584.455444 509.637299 582.778992 507.862366 C 581.210327 506.201538 578.972534 507.278534 577.089111 507.730286 C 543.006531 515.905518 508.950378 524.192383 474.838409 532.242737 C 470.400177 533.290161 467.796417 535.074951 465.949249 539.544922 C 451.328064 574.926514 437.349243 610.599915 420.25882 644.906006 C 405.891357 673.746155 390.073792 701.769958 369.022797 726.34491 C 351.012604 747.370056 330.771271 765.970215 304.746552 776.815796 C 281.9888 786.299927 258.946686 787.670166 236.070221 776.949707 C 217.715256 768.348145 209.188644 752.928406 206.673691 733.563477 C 202.554932 701.849182 213.039856 673.733154 229.19751 647.490417 C 256.024567 603.918884 295.207184 574.476929 340.713226 552.74707 C 365.237335 541.036438 390.735718 531.752563 416.600098 523.483704 C 420.08429 522.369812 422.09845 520.518188 423.406036 517.036133 C 439.675568 473.71109 456.321442 430.525848 475.536652 388.403351 C 488.73996 359.459778 502.127838 330.566864 520.337524 304.277252 C 524.692993 297.989136 529.34436 291.905914 534.413879 284.970215 C 527.600037 285.35791 521.285095 284.61557 514.957886 284.434967 C 496.648712 283.912354 478.622375 280.758759 460.462921 278.866669 C 427.346161 275.416107 394.006287 271.037811 361.367584 280.480042 C 311.562744 294.888397 278.765442 327.153168 268.089142 378.463165 C 262.580475 404.937683 268.698853 429.886322 290.03891 448.915863 C 298.940216 456.853455 309.765747 461.135376 321.346588 463.583344 C 323.815002 464.105164 327.448975 463.59848 327.028809 467.489044 C 326.647308 471.021698 323.330383 471.333557 320.415741 471.351562 C 298.880951 471.48465 281.463562 462.371307 267.182983 446.916687 C 254.792145 433.507172 248.582901 417.294067 246.558823 399.217194 C 242.417587 362.232056 251.855621 329.098541 275.537201 300.583984 C 299.125519 272.181732 329.93045 256.020142 366.239441 249.472931 C 390.924133 245.021805 415.187897 247.271652 439.542786 251.305038 C 464.417175 255.424469 489.204193 260.281891 514.343933 262.44165 C 527.551636 263.576263 540.890198 264.34726 554.131714 261.847412 C 556.519104 261.396729 558.526306 260.501556 560.512756 259.251251 C 567.983337 254.549286 575.45752 249.851959 582.99054 245.251282 C 584.966431 244.044495 587.084656 242.978027 589.267212 242.221008 C 594.240967 240.495758 599.092224 242.342422 601.295044 246.55777 C 603.544373 250.862061 602.237549 255.370041 597.558594 258.613342 C 590.000122 263.852722 582.892456 269.552551 576.907898 276.619568 C 559.735596 296.898132 547.083557 319.893494 536.224243 343.968445 C 518.544922 383.163147 504.581757 423.776794 490.420135 464.311981 C 486.1409 476.560547 481.968658 488.846558 477.762604 501.120575 C 477.177185 502.828857 476.679443 504.567139 476.201874 506.096954 C 477.589905 507.914185 479.039093 507.487244 480.51944 507.145538 C 518.050293 498.48233 555.929565 491.260651 592.795044 479.8396 C 596.70343 478.628754 599.287231 476.871948 601.077759 472.891327 C 617.486572 436.414124 635.227844 400.59375 655.460266 366.065979 C 676.631714 329.935699 699.726501 295.144501 728.26239 264.276062 C 744.136169 247.104691 761.883911 232.444031 783.980652 223.825165 C 795.97113 219.14827 808.30957 216.863953 821.093445 219.623108 C 836.687805 222.988861 845.354431 234.551285 846.466858 250.589035 C 848.127197 274.525208 841.52948 296.332489 831.001831 317.275818 C 816.819519 345.489502 797.589478 370.111389 776.540833 393.464111 C 741.113831 432.769165 698.516968 462.333527 651.532959 485.958588 C 646.766724 488.355133 643.843811 491.574188 641.810364 496.553619 C 622.911743 542.832031 607.118103 590.080566 596.549194 638.994751 C 591.791687 661.012756 589.170959 683.271729 590.435059 705.810791 C 591.079529 717.301941 593.251465 728.592651 598.99292 738.833862 C 606.991272 753.100647 619.610291 757.888306 634.933716 752.067261 C 653.429504 745.041016 668.445435 733.027466 681.238281 718.184937 C 699.752075 696.705078 714.184204 672.631104 725.819885 646.833191 C 727.072632 644.055603 728.310425 641.288696 731.717407 640.597046 C 734.646301 640.00238 737.501892 640.307068 739.552063 642.632812 C 742.18042 645.614441 741.768555 649.09668 740.391541 652.505859 C 731.448303 674.646301 721.112 696.052124 706.847961 715.78064 M 333.433136 718.959534 C 342.647675 706.056458 350.70282 692.44989 357.715759 678.245605 C 377.563416 638.045532 393.861847 596.354004 409.453156 554.373474 C 409.91391 553.132935 411.152985 551.75769 409.931946 550.082031 C 409.297852 550.181702 408.621338 550.184448 408.019196 550.397461 C 376.729492 561.466248 345.919952 573.540955 318.500519 592.795532 C 287.421021 614.620239 261.818237 641.292114 245.793259 676.145935 C 237.589691 693.988586 231.800522 712.537903 235.381226 732.627197 C 237.913773 746.835754 244.481094 757.972656 259.395355 762.139954 C 274.317871 766.309631 287.649323 761.963867 300.163666 754.048767 C 313.981171 745.30957 323.685303 732.591309 333.433136 718.959534 M 748.533752 396.033112 C 757.111023 387.664062 765.686646 379.309662 773.556885 370.237061 C 794.163452 346.482391 810.555359 320.245331 820.786621 290.402496 C 824.880798 278.460541 828.768066 266.40271 827.757935 253.444519 C 827.106628 245.090652 821.807739 239.690063 813.469299 239.061188 C 806.782959 238.556915 801.153259 241.377472 795.730469 244.751083 C 779.353149 254.939774 766.427795 268.876587 754.745911 283.879578 C 717.275391 332.002869 688.798035 385.358643 664.489868 441.063965 C 662.289856 446.105652 659.867615 451.161682 658.556946 457.620148 C 691.487549 440.654968 721.706116 421.465424 748.533752 396.033112 z" stroke-linecap="round" />
</g>
</svg>